/* XPM */
static char * image_name[] = {
"48 48 87 1",
" 	c None",
".	c #28A228A228A2",
"X	c #30C230C230C2",
"o	c #79E779E779E7",
"O	c #71C671C671C6",
"+	c #71C675D671C6",
"@	c #79E77DF779E7",
"#	c #8E388A288E38",
"$	c #8E388E388E38",
"%	c #965892489658",
"&	c #41033CF34103",
"*	c #28A2249228A2",
"=	c #208120812081",
"-	c #104010401040",
";	c #082008200820",
":	c #000000000000",
">	c #492449244924",
",	c #49244D344924",
"<	c #59655D755965",
"1	c #69A669A669A6",
"2	c #9E799A699E79",
"3	c #9E799E799E79",
"4	c #9E79A2899E79",
"5	c #A699A289A699",
"6	c #861782078617",
"7	c #69A66DB669A6",
"8	c #596559655965",
"9	c #208124922081",
"0	c #10400C301040",
"q	c #082004100820",
"w	c #410345144103",
"e	c #861786178617",
"r	c #965896589658",
"t	c #A699A699A699",
"y	c #B6DAB2CAB6DA",
"u	c #BEFBBEFBBEFB",
"i	c #C71BC30BC71B",
"p	c #B6DAB6DAB6DA",
"a	c #AEBAAAAAAEBA",
"s	c #514455555144",
"d	c #104014511040",
"f	c #08200C300820",
"g	c #30C234D330C2",
"h	c #514451445144",
"j	c #AEBAAEBAAEBA",
"k	c #CF3CCB2BCF3C",
"l	c #CF3CCF3CCF3C",
"z	c #D75CD34CD75C",
"x	c #CF3CD34CCF3C",
"c	c #C71BC71BC71B",
"v	c #596555555965",
"b	c #D75CD75CD75C",
"n	c #D75CDB6CD75C",
"m	c #DF7DDF7DDF7D",
"M	c #DF7DE38DDF7D",
"N	c #E79DE38DE79D",
"B	c #DF7DDB6CDF7D",
"V	c #618565956185",
"C	c #410341034103",
"Z	c #E79DE79DE79D",
"A	c #BEFBBAEABEFB",
"S	c #E79DEBADE79D",
"D	c #BEFBC30BBEFB",
"F	c #18611C711861",
"G	c #69A6659569A6",
"H	c #B6DABAEAB6DA",
"J	c #A699AAAAA699",
"K	c #186118611861",
"L	c #38E33CF338E3",
"P	c #C71BCB2BC71B",
"I	c #000004100000",
"U	c #186114511861",
"Y	c #28A22CB228A2",
"T	c #38E338E338E3",
"R	c #EFBEEBADEFBE",
"E	c #618561856185",
"W	c #38E334D338E3",
"Q	c #F7DEFBEEF7DE",
"!	c #F7DEF7DEF7DE",
"~	c #96589A699658",
"^	c #EFBEF3CEEFBE",
"/	c #EFBEEFBEEFBE",
"(	c #492445144924",
")	c #61855D756185",
"_	c #30C22CB230C2",
"`	c #20811C712081",
"'	c #FFFFFFFFFFFF",
"               .XoOO+@#$%$OO&*=-;:              ",
"              >,<1+%2345534$+67890q             ",
"            w81oertyuippppayt%$o7sd;            ",
"          fgh+$5tjkllzlllxicpja%6o1=-           ",
"         fgv@2plbnmMmMNNMmmBxlkuua4#V*;         ",
"       ;-C<@rycBmMZNNZZZZNMMnbblkAj3rOX;        ",
"       .>7$pibmZZZZZSSZZSZZZMBnzxkDyy3+F        ",
"      *>GrjkzmNZZZSSSSSSSSZZMmmBnbzDHJr7=       ",
"     KLOrDlmNZZZSSSSSSSSSZZNNMMmmMmBzuy%+       ",
"    -.h$yznNZZZZZZZZSSSSZZZNMMMMMNMmnij2rOK     ",
"    =w7JPmMZSZZZSSSZSSSSZZNNMMmMMNNMmzuy56*fI   ",
"   UC72xmZLw18OOOSSZZSSZZZmmBmmmmmMMMmluy5+Cf   ",
"  Ids#abNY=C1##666ZZZSSZZNmmBBBmmmMMNmlxAp27U   ",
"  ;.Otcc<.T1rpcciyrRSRSZNMbbbbnBBmMNNmBBkit#=q  ",
"  dY@ykjLY<%pmSZzir6RRSZNmbbbbbnnmmNNMmBbcy3E0  ",
" qKT6pl:=WVjPZQ!SzyrRRSZmBbbzzzbnmmMNNZmBzHt7K  ",
"YfF&~Ax:-X1yz^Q!^zi6//ZZMBbzzzzbnmmMNMNmbzHt@.  ",
"YIF>%yl:fY<tcZ//Bzy6RZNNmbbblllzbBmmmMMmBzpa#E  ",
" IK(ryk*;=,#AmZZMzr6SZmMnbbbnkDcPxzmmmmmbzpa%1  ",
" :KW$jcXUfC+2ilkDir8ZZBBbbnblkDrrtzkzmBBbzAa$1  ",
" :fw$aDt=qKs+%3a~68ZmBbbxPp2O)8..)O#4pckkPJt$1  ",
" :;T@tuHhKdTh76O18>ZmbzPjjohK-0K;0U=<o$puAy%#1  ",
" :q.O~pzyWL*d9FwhImzbkya68=-q::::::q0=v76%53#o  ",
" :I9<$jcbmjT::::mmPzcH$O>.0::::::::::;Y>1o$#oo  ",
" ::K(+2Aizbbnbapukkit@,gUq::::q::::::;K.L>OooV  ",
" :::L1#juPlxzllkciuJ#<_=f::::f=Xg.Kf:IfK.TOooo  ",
" :::.ho2jucPkccDuya%1w`dI::q-Y,V7VhX-:q-FXV1o,  ",
" :::fXTo$jypApyj53+<T`;::::UCE@aa5$$Cd:fU.s)V>  ",
" ::::f.1o%2JaJar$@h&*-::::;YVetkzzuJ$g-fK9h88g  ",
" :::::f.LEEoo+Os(T=-qI::::U&@tDM//Mp6>d;d=CswF  ",
"  :::::``L,88s,X_K;q:::::IK,eiPZ''/z$h`0-*>(g-  ",
"  ::::::::::UUd-f;::::::::F>$yP/''/i38=q-FwLK   ",
"  ::::::::::::::::::::::::-&+tum/ZzA#s=;U=Tgf   ",
"   :::::::::::::::::::::::;.<63izkuJ@CU;-`X-I   ",
"   :::::::::::::::::::::::IFw1#5pja2oX:;dK`q    ",
"    :::::::::::::::::::::::-X,Vo##e@(-:f-U;:    ",
"    :::::::::::::::::::::::;d.T>sshT`qq;ff::    ",
"     :::::::::::::::::::::::I;d`==F;:qq;qI:     ",
"      :::::::::::::::::::::::::::::::IqI:::     ",
"      qq::::::::::::::::::::::::::::I;;I::      ",
"      q-Fq:::::::::::::::::::::::::;0-0q:       ",
"     qqd`.;;::::::::::::::::::::q;0-FFdfq       ",
"     q-F.X&Kd-;:::::::::::::::q0U==YY*K-qI      ",
"     q-F.X&LCT`-;:::::::::::I0K.TC,&T.`UfI      ",
"     q-F.X&w,s,L=--::::::::F`*C88sh&T.`UfI      ",
"     q-F.X&w,s88<88)8EEEEV11VEE88sh&T.`UfI      ",
"     q-F.X&w,s8v888)8EEEEEVVVEE<8sh&T.`UfI      ",
"     q-F.X&w,hhsv88<8EEEEVVEE)E<<sh&T.`UfI      "};
